<svg width="62" height="62" viewBox="0 0 62 62" fill="none" xmlns="http://www.w3.org/2000/svg">
<g clip-path="url(#clip0_96_3939)">
<g clip-path="url(#clip1_96_3939)">
<g clip-path="url(#clip2_96_3939)">
<path d="M26.794 6.3854L26.375 10.9486C26.3613 11.0993 26.3785 11.2513 26.4253 11.395C26.4724 11.5387 26.5481 11.6711 26.6481 11.7838C26.7482 11.8966 26.8703 11.9875 27.0066 12.0506C27.1429 12.1137 27.2907 12.1479 27.4408 12.1509C30.2156 12.2359 32.9969 11.9657 35.784 11.3402C37.3869 10.982 38.0062 9.97403 37.6419 8.31632C37.5691 7.97022 37.3656 7.73644 37.0317 7.61499C36.7159 7.49355 36.4246 7.32353 36.1574 7.10493C35.8781 6.8742 35.784 6.58274 35.8749 6.23055C36.2635 4.70644 36.4337 3.15502 36.3851 1.57627C36.3758 1.2636 36.2469 0.966423 36.0247 0.746085C35.8029 0.525748 35.5045 0.39907 35.1919 0.392204C32.1375 0.331483 29.1563 0.884045 26.2475 2.04989C24.9178 2.57817 24.4533 3.51935 24.8541 4.87343C24.8902 4.99295 24.9567 5.10156 25.0474 5.18916C25.1384 5.27676 25.2504 5.34048 25.3733 5.37439L26.2385 5.59298C26.6454 5.70228 26.8306 5.96643 26.794 6.3854Z" fill="#129EAF"/>
<path d="M2.84502 19.3544L2.2712 23.1799C2.24941 23.3274 2.25802 23.4777 2.29649 23.6216C2.33497 23.7655 2.40247 23.8997 2.4948 24.016C2.58712 24.1323 2.70227 24.228 2.83306 24.2973C2.96385 24.3666 3.10744 24.4079 3.25489 24.4186C5.27689 24.5643 13.8022 24.6645 13.8113 21.3674C13.8113 21.0395 13.6898 20.7602 13.4469 20.5294L12.3084 19.4273C12.0655 19.1905 11.9593 18.9051 11.9896 18.5711L12.3813 14.0262C12.3938 13.8777 12.3763 13.7282 12.3298 13.5868C12.2833 13.4453 12.2089 13.3149 12.111 13.2034C12.0131 13.0919 11.8937 13.0015 11.7601 12.9379C11.6266 12.8742 11.4815 12.8385 11.3339 12.833C8.20973 12.6964 3.62831 13.252 1.02338 15.3104C0.276505 15.9055 0.273471 16.5006 1.01427 17.0956L2.39872 18.2159C2.76304 18.5074 2.91181 18.8869 2.84502 19.3544Z" fill="#F9AB00"/>
<path d="M50.9703 18.7991L50.4694 22.6427C50.3115 23.8996 50.867 24.5311 52.136 24.5372C54.6439 24.5433 57.3825 24.2093 60.3517 23.5353C61.9 23.1892 62.1006 21.4587 61.481 20.2381C61.3535 19.9831 61.1471 19.8343 60.8617 19.7919C60.0602 19.6704 59.7687 19.215 59.9874 18.4256C60.4427 16.7922 60.5854 15.2256 60.4155 13.7258C60.3895 13.4847 60.2775 13.261 60.1004 13.0954C59.9232 12.9299 59.6922 12.8336 59.45 12.8241C57.8468 12.7603 46.6621 13.2886 49.2124 17.4784C49.358 17.7152 49.5676 17.8548 49.8407 17.8973L50.3235 17.9611C50.5191 17.9859 50.6966 18.0879 50.8178 18.2448C50.9389 18.4018 50.9938 18.601 50.9703 18.7991Z" fill="#4285F4"/>
<path d="M35.9781 31.1196L36.4971 26.7568C36.5187 26.5673 36.5003 26.3753 36.4424 26.1931C36.3848 26.011 36.2894 25.8428 36.1624 25.6996C36.0354 25.5562 35.8798 25.441 35.7052 25.361C35.5306 25.2814 35.3411 25.2384 35.1491 25.2357C32.9541 25.2176 23.8914 25.8097 24.8387 29.4164C24.877 29.5679 24.9578 29.7047 25.0711 29.8099C25.1844 29.9151 25.3251 29.984 25.4761 30.0085C25.8647 30.0752 26.1928 30.2453 26.46 30.5185C26.6907 30.7553 26.7939 31.0377 26.7697 31.3655L26.4872 35.9105C26.4784 36.0503 26.4985 36.19 26.5466 36.3214C26.5946 36.4528 26.6694 36.5727 26.766 36.6737C26.8628 36.7747 26.9793 36.8547 27.1085 36.9084C27.2377 36.9621 27.3767 36.9883 27.5165 36.9854C30.1822 36.9429 32.8963 36.6576 35.6591 36.1292C38.2731 35.6283 38.3371 33.1874 36.324 31.8483C36.2036 31.7683 36.1073 31.658 36.0462 31.5293C35.9852 31.4006 35.9614 31.2589 35.9781 31.1196Z" fill="#5BB974"/>
<path d="M12.6982 44.664C12.4682 44.5451 12.2782 44.3615 12.1519 44.1364C12.0256 43.9113 11.9685 43.6547 11.9878 43.398L12.343 39.0351C12.4341 37.9422 11.9331 37.417 10.8402 37.4594C8.62688 37.5322 1.68643 38.2427 0.67542 40.8386C0.529689 41.2149 0.611663 41.5339 0.92134 41.795L2.57903 43.152C2.69603 43.2491 2.786 43.3747 2.84025 43.5166C2.8945 43.6588 2.91119 43.8123 2.88871 43.9626L2.30579 47.9702C2.28548 48.1072 2.29379 48.247 2.3302 48.3808C2.36661 48.5144 2.43035 48.6395 2.51746 48.7481C2.60457 48.8565 2.71319 48.9459 2.83659 49.0112C2.95998 49.0764 3.09553 49.1158 3.23482 49.1269C6.52593 49.3698 9.61967 49.0482 12.5161 48.1616C12.7796 48.0834 13.0203 47.9412 13.2172 47.7475C13.414 47.5539 13.5611 47.3146 13.6455 47.0503C13.9855 45.9573 13.6698 45.162 12.6982 44.664Z" fill="#AF5CF7"/>
<path d="M60.0333 43.5994C60.1608 42.3426 60.3003 41.0552 60.4523 39.7377C60.6283 38.1649 59.9725 37.412 58.4848 37.4787C55.6796 37.6062 52.9562 38.1953 50.3147 39.2456C48.9849 39.774 48.5995 40.6787 49.158 41.9599C49.2183 42.1007 49.3058 42.2274 49.4157 42.3323C49.5253 42.4373 49.6545 42.5182 49.7957 42.5702C50.6942 42.8982 51.0524 43.5508 50.8703 44.5286C50.6518 45.7005 50.5243 46.8844 50.4878 48.0806C50.4829 48.2263 50.5069 48.3712 50.5584 48.5075C50.6099 48.6435 50.6879 48.7681 50.7879 48.874C50.8879 48.9799 51.0078 49.0648 51.1407 49.1241C51.2736 49.1834 51.417 49.2158 51.5626 49.2192C54.7565 49.3043 57.6743 48.9946 60.3155 48.2903C60.7426 48.175 61.1192 47.922 61.3862 47.5709C61.6534 47.2198 61.7958 46.7903 61.7912 46.3502C61.7851 45.4333 61.3599 44.7897 60.5161 44.4192C60.3594 44.3508 60.2285 44.2349 60.1417 44.0875C60.0549 43.9404 60.0171 43.7695 60.0333 43.5994Z" fill="#FA7B17"/>
<path d="M36.076 55.7789L36.4403 50.9789C36.4504 50.8563 36.4354 50.733 36.3962 50.6163C36.3572 50.4998 36.2949 50.3922 36.2133 50.3002C36.1317 50.2083 36.0321 50.134 35.9208 50.0816C35.8098 50.0291 35.6889 49.9997 35.5661 49.9953C33.5441 49.9131 23.9986 50.4143 24.8639 54.0028C24.9428 54.3368 25.1372 54.5706 25.4468 54.704C25.9509 54.9227 26.3454 55.2446 26.6308 55.6695C26.8009 55.9306 26.8585 56.216 26.8039 56.5259C26.5307 58.0621 26.4457 59.5467 26.5489 60.9797C26.5793 61.3864 26.7948 61.6022 27.1956 61.6264C30.3167 61.8145 33.298 61.511 36.1398 60.7156C37.4818 60.3329 37.9707 59.4496 37.6064 58.0651C37.5179 57.7415 37.3176 57.4607 37.0415 57.2727C36.7561 57.0783 36.5102 56.8476 36.3038 56.5803C36.1277 56.3435 36.0517 56.0765 36.076 55.7789Z" fill="#FF8BCB"/>
<path d="M26.2385 5.59298L25.3733 5.37439C25.2504 5.34048 25.1384 5.27676 25.0474 5.18916C24.9567 5.10156 24.8902 4.99295 24.8541 4.87343C24.4533 3.51935 24.9178 2.57817 26.2475 2.04989C29.1563 0.884045 32.1375 0.331483 35.1919 0.392204C35.5045 0.39907 35.8029 0.525748 36.0247 0.746085C36.2469 0.966423 36.3758 1.2636 36.3851 1.57627C36.4337 3.15502 36.2635 4.70644 35.8749 6.23055C35.784 6.58274 35.8781 6.8742 36.1574 7.10493C36.4246 7.32353 36.7159 7.49355 37.0317 7.61499C37.3656 7.73644 37.5691 7.97022 37.6419 8.31632C38.0062 9.97403 37.3869 10.982 35.784 11.3402C32.9969 11.9657 30.2156 12.2359 27.4408 12.1509C27.2907 12.1479 27.1429 12.1137 27.0066 12.0506C26.8703 11.9875 26.7482 11.8966 26.6481 11.7838C26.5481 11.6711 26.4724 11.5387 26.4253 11.395C26.3785 11.2513 26.3613 11.0993 26.375 10.9486L26.794 6.3854C26.8306 5.96643 26.6454 5.70228 26.2385 5.59298Z" fill="#129EAF"/>
<path d="M2.39872 18.2159L1.01427 17.0956C0.273471 16.5006 0.276505 15.9055 1.02338 15.3104C3.62831 13.252 8.20973 12.6964 11.3339 12.833C11.4815 12.8385 11.6266 12.8742 11.7601 12.9379C11.8937 13.0015 12.0131 13.0919 12.111 13.2034C12.2089 13.3149 12.2833 13.4453 12.3298 13.5868C12.3763 13.7282 12.3938 13.8777 12.3813 14.0262L11.9896 18.5711C11.9593 18.9051 12.0655 19.1905 12.3084 19.4273L13.4469 20.5294C13.6898 20.7602 13.8113 21.0395 13.8113 21.3674C13.8022 24.6645 5.27689 24.5643 3.25489 24.4186C3.10744 24.4079 2.96385 24.3666 2.83306 24.2973C2.70227 24.228 2.58712 24.1323 2.4948 24.016C2.40247 23.8997 2.33497 23.7655 2.29649 23.6216C2.25802 23.4777 2.24941 23.3274 2.2712 23.1799L2.84502 19.3544C2.91181 18.8869 2.76304 18.5074 2.39872 18.2159Z" fill="#F9AB00"/>
<path d="M50.3235 17.9611L49.8407 17.8973C49.5676 17.8548 49.358 17.7152 49.2124 17.4784C46.6621 13.2886 57.8468 12.7603 59.45 12.8241C59.6922 12.8336 59.9232 12.9299 60.1004 13.0954C60.2775 13.261 60.3895 13.4847 60.4155 13.7258C60.5854 15.2256 60.4427 16.7922 59.9874 18.4256C59.7687 19.215 60.0602 19.6704 60.8617 19.7919C61.1471 19.8343 61.3535 19.9831 61.481 20.2381C62.1006 21.4587 61.9 23.1892 60.3517 23.5353C57.3825 24.2093 54.6439 24.5433 52.136 24.5372C50.867 24.5311 50.3115 23.8996 50.4694 22.6427L50.9703 18.7991C50.9938 18.601 50.9389 18.4018 50.8178 18.2448C50.6966 18.0879 50.5191 17.9859 50.3235 17.9611Z" fill="#4285F4"/>
<path d="M36.324 31.8483C38.3371 33.1874 38.2731 35.6283 35.6591 36.1292C32.8963 36.6576 30.1822 36.9429 27.5165 36.9854C27.3767 36.9883 27.2377 36.9621 27.1085 36.9084C26.9793 36.8547 26.8628 36.7747 26.766 36.6737C26.6694 36.5727 26.5946 36.4528 26.5466 36.3214C26.4985 36.19 26.4784 36.0503 26.4872 35.9105L26.7697 31.3655C26.7939 31.0377 26.6907 30.7553 26.46 30.5185C26.1928 30.2453 25.8647 30.0752 25.4761 30.0085C25.3251 29.984 25.1844 29.9151 25.0711 29.8099C24.9578 29.7047 24.877 29.5679 24.8387 29.4164C23.8914 25.8097 32.9541 25.2176 35.1491 25.2357C35.3411 25.2384 35.5306 25.2814 35.7052 25.361C35.8798 25.441 36.0354 25.5562 36.1624 25.6996C36.2894 25.8428 36.3848 26.011 36.4424 26.1931C36.5003 26.3753 36.5187 26.5673 36.4971 26.7568L35.9781 31.1196C35.9614 31.2589 35.9852 31.4006 36.0462 31.5293C36.1073 31.658 36.2036 31.7683 36.324 31.8483Z" fill="#5BB974"/>
<path d="M12.6982 44.664C13.6698 45.162 13.9855 45.9573 13.6455 47.0503C13.5611 47.3146 13.414 47.5539 13.2172 47.7475C13.0203 47.9412 12.7796 48.0834 12.5161 48.1616C9.61967 49.0482 6.52593 49.3698 3.23482 49.1269C3.09553 49.1158 2.95998 49.0764 2.83659 49.0112C2.71319 48.9459 2.60457 48.8565 2.51746 48.7481C2.43035 48.6395 2.36661 48.5144 2.3302 48.3808C2.29379 48.247 2.28548 48.1072 2.30579 47.9702L2.88871 43.9626C2.91119 43.8123 2.8945 43.6588 2.84025 43.5166C2.786 43.3747 2.69603 43.2491 2.57903 43.152L0.92134 41.795C0.611663 41.5339 0.529689 41.2149 0.67542 40.8386C1.68643 38.2427 8.62688 37.5322 10.8402 37.4594C11.9331 37.417 12.4341 37.9422 12.343 39.0351L11.9878 43.398C11.9685 43.6547 12.0256 43.9113 12.1519 44.1364C12.2782 44.3615 12.4682 44.5451 12.6982 44.664Z" fill="#AF5CF7"/>
<path d="M60.5161 44.4192C61.3599 44.7897 61.7851 45.4333 61.7912 46.3502C61.7958 46.7903 61.6534 47.2198 61.3862 47.5709C61.1192 47.922 60.7426 48.175 60.3155 48.2903C57.6743 48.9946 54.7565 49.3043 51.5626 49.2192C51.417 49.2158 51.2736 49.1834 51.1407 49.1241C51.0078 49.0648 50.8879 48.9799 50.7879 48.874C50.6879 48.7681 50.6099 48.6435 50.5584 48.5075C50.5069 48.3712 50.4829 48.2263 50.4878 48.0806C50.5243 46.8844 50.6518 45.7005 50.8703 44.5286C51.0524 43.5508 50.6942 42.8982 49.7957 42.5702C49.6545 42.5182 49.5253 42.4373 49.4157 42.3323C49.3058 42.2274 49.2183 42.1007 49.158 41.9599C48.5995 40.6787 48.9849 39.774 50.3147 39.2456C52.9562 38.1953 55.6796 37.6062 58.4848 37.4787C59.9725 37.412 60.6283 38.1649 60.4523 39.7377C60.3003 41.0552 60.1608 42.3426 60.0333 43.5994C60.0171 43.7695 60.0549 43.9404 60.1417 44.0875C60.2285 44.2349 60.3594 44.3508 60.5161 44.4192Z" fill="#FA7B17"/>
<path d="M36.3038 56.5803C36.5102 56.8476 36.7561 57.0783 37.0415 57.2727C37.3176 57.4607 37.5179 57.7415 37.6064 58.0651C37.9707 59.4496 37.4818 60.3329 36.1398 60.7156C33.298 61.511 30.3167 61.8145 27.1956 61.6264C26.7948 61.6022 26.5793 61.3864 26.5489 60.9797C26.4457 59.5467 26.5307 58.0621 26.8039 56.5259C26.8585 56.216 26.8009 55.9306 26.6308 55.6695C26.3454 55.2446 25.9509 54.9227 25.4468 54.704C25.1372 54.5706 24.9428 54.3368 24.8639 54.0028C23.9986 50.4143 33.5441 49.9131 35.5661 49.9953C35.6889 49.9997 35.8098 50.0291 35.9208 50.0816C36.0321 50.134 36.1317 50.2083 36.2133 50.3002C36.2949 50.3922 36.3572 50.4998 36.3962 50.6163C36.4354 50.733 36.4504 50.8563 36.4403 50.9789L36.076 55.7789C36.0517 56.0765 36.1277 56.3435 36.3038 56.5803Z" fill="#FF8BCB"/>
</g>
</g>
</g>
<defs>
<clipPath id="clip0_96_3939">
<rect width="61.5391" height="61.2929" fill="white" transform="translate(0.460938 0.387695)"/>
</clipPath>
<clipPath id="clip1_96_3939">
<rect width="61.5391" height="61.2929" fill="white" transform="translate(0.460938 0.387695)"/>
</clipPath>
<clipPath id="clip2_96_3939">
<rect width="61.5381" height="61.2929" fill="white" transform="translate(0.460938 0.387695)"/>
</clipPath>
</defs>
</svg>
